<mxfile host="app.diagrams.net" modified="2023-12-24T00:53:39.305Z" agent="Mozilla/5.0 (Windows NT 10.0; Win64; x64) AppleWebKit/537.36 (KHTML, like Gecko) Chrome/120.0.0.0 Safari/537.36" etag="Wr16oCZJngGbdJt9P1xh" version="22.1.11" type="google">
  <diagram id="wAYgeUItnU9kSVXqXosc" name="Page-1">
    <mxGraphModel grid="1" page="1" gridSize="10" guides="1" tooltips="1" connect="1" arrows="1" fold="1" pageScale="1" pageWidth="827" pageHeight="1169" math="0" shadow="0">
      <root>
        <mxCell id="0" />
        <mxCell id="1" parent="0" />
        <mxCell id="tRei36gf63GVyLvpFXBs-198" value="" style="rounded=0;whiteSpace=wrap;html=1;fontSize=18;strokeColor=#000000;strokeWidth=2;fillColor=#FFFFFF;" vertex="1" parent="1">
          <mxGeometry x="-290" y="659" width="1030" height="320" as="geometry" />
        </mxCell>
        <mxCell id="tRei36gf63GVyLvpFXBs-196" value="" style="rounded=0;whiteSpace=wrap;html=1;fontSize=18;strokeColor=#000000;strokeWidth=2;fillColor=#FFFFFF;" vertex="1" parent="1">
          <mxGeometry x="-290" y="-21" width="1030" height="680" as="geometry" />
        </mxCell>
        <mxCell id="tRei36gf63GVyLvpFXBs-8" value="" style="rounded=1;whiteSpace=wrap;html=1;fillColor=#FFB366;strokeColor=#b85450;" vertex="1" parent="1">
          <mxGeometry x="-125" y="605" width="40" height="30" as="geometry" />
        </mxCell>
        <mxCell id="tRei36gf63GVyLvpFXBs-9" value="&amp;nbsp;= Required" style="text;html=1;align=left;verticalAlign=middle;resizable=0;points=[];autosize=1;strokeColor=none;fillColor=none;fontSize=15;" vertex="1" parent="1">
          <mxGeometry x="-80" y="605" width="100" height="30" as="geometry" />
        </mxCell>
        <mxCell id="tRei36gf63GVyLvpFXBs-10" value="" style="rounded=1;whiteSpace=wrap;html=1;fillColor=#dae8fc;strokeColor=#6c8ebf;" vertex="1" parent="1">
          <mxGeometry x="45" y="605" width="40" height="30" as="geometry" />
        </mxCell>
        <mxCell id="tRei36gf63GVyLvpFXBs-11" value="= Theory" style="text;html=1;align=center;verticalAlign=middle;resizable=0;points=[];autosize=1;strokeColor=none;fillColor=none;fontSize=15;" vertex="1" parent="1">
          <mxGeometry x="85" y="610" width="70" height="20" as="geometry" />
        </mxCell>
        <mxCell id="tRei36gf63GVyLvpFXBs-12" value="" style="rounded=1;whiteSpace=wrap;html=1;fillColor=#F8CECC;strokeColor=#82b366;" vertex="1" parent="1">
          <mxGeometry x="174" y="605" width="40" height="30" as="geometry" />
        </mxCell>
        <mxCell id="tRei36gf63GVyLvpFXBs-13" value="= AI Courses" style="text;html=1;align=center;verticalAlign=middle;resizable=0;points=[];autosize=1;strokeColor=none;fillColor=none;fontSize=15;" vertex="1" parent="1">
          <mxGeometry x="206" y="605" width="110" height="30" as="geometry" />
        </mxCell>
        <mxCell id="tRei36gf63GVyLvpFXBs-14" value="Python coding" style="rounded=1;whiteSpace=wrap;html=1;fontSize=15;strokeWidth=2;strokeColor=#141414;" vertex="1" parent="1">
          <mxGeometry x="420" y="235" width="125" height="50" as="geometry" />
        </mxCell>
        <mxCell id="tRei36gf63GVyLvpFXBs-104" style="edgeStyle=orthogonalEdgeStyle;rounded=1;orthogonalLoop=1;jettySize=auto;html=1;exitX=1;exitY=0.5;exitDx=0;exitDy=0;entryX=0;entryY=0.5;entryDx=0;entryDy=0;fontSize=15;startArrow=none;startFill=0;strokeWidth=2;strokeColor=#A1A1A1;" edge="1" parent="1" source="tRei36gf63GVyLvpFXBs-19" target="tRei36gf63GVyLvpFXBs-33">
          <mxGeometry relative="1" as="geometry">
            <Array as="points">
              <mxPoint x="-130" y="310" />
              <mxPoint x="-130" y="310" />
            </Array>
          </mxGeometry>
        </mxCell>
        <mxCell id="tRei36gf63GVyLvpFXBs-19" value="Undergrad Linear Algebra" style="rounded=1;whiteSpace=wrap;html=1;fontSize=15;strokeWidth=2;strokeColor=#000000;" vertex="1" parent="1">
          <mxGeometry x="-270" y="285" width="125" height="50" as="geometry" />
        </mxCell>
        <mxCell id="tRei36gf63GVyLvpFXBs-192" style="edgeStyle=orthogonalEdgeStyle;rounded=1;orthogonalLoop=1;jettySize=auto;html=1;exitX=1;exitY=0.5;exitDx=0;exitDy=0;entryX=0;entryY=0.25;entryDx=0;entryDy=0;fontSize=18;startArrow=none;startFill=0;endArrow=classic;endFill=1;strokeColor=#000000;strokeWidth=2;elbow=vertical;" edge="1" parent="1" source="tRei36gf63GVyLvpFXBs-20" target="tRei36gf63GVyLvpFXBs-33">
          <mxGeometry relative="1" as="geometry">
            <Array as="points">
              <mxPoint x="-145" y="240" />
              <mxPoint x="-100" y="240" />
              <mxPoint x="-100" y="300" />
            </Array>
          </mxGeometry>
        </mxCell>
        <mxCell id="tRei36gf63GVyLvpFXBs-20" value="Undergrad Probability" style="rounded=1;whiteSpace=wrap;html=1;fontSize=15;strokeWidth=2;" vertex="1" parent="1">
          <mxGeometry x="-270" y="214" width="125" height="50" as="geometry" />
        </mxCell>
        <mxCell id="tRei36gf63GVyLvpFXBs-132" style="edgeStyle=orthogonalEdgeStyle;rounded=1;orthogonalLoop=1;jettySize=auto;html=1;exitX=0.5;exitY=1;exitDx=0;exitDy=0;entryX=0;entryY=0.5;entryDx=0;entryDy=0;fontSize=15;startArrow=none;startFill=0;strokeColor=#d79b00;strokeWidth=2;elbow=vertical;fillColor=#ffe6cc;dashed=1;" edge="1" parent="1" source="tRei36gf63GVyLvpFXBs-1" target="tRei36gf63GVyLvpFXBs-29">
          <mxGeometry relative="1" as="geometry" />
        </mxCell>
        <mxCell id="tRei36gf63GVyLvpFXBs-1" value="&lt;font style=&quot;font-size: 15px&quot;&gt;Deep Learning&lt;/font&gt;" style="rounded=1;whiteSpace=wrap;html=1;fillColor=#f8cecc;strokeColor=#b85450;strokeWidth=1;" vertex="1" parent="1">
          <mxGeometry x="67" y="150" width="135" height="40" as="geometry" />
        </mxCell>
        <mxCell id="tRei36gf63GVyLvpFXBs-127" style="edgeStyle=orthogonalEdgeStyle;rounded=1;orthogonalLoop=1;jettySize=auto;html=1;exitX=0.5;exitY=1;exitDx=0;exitDy=0;entryX=1;entryY=0.5;entryDx=0;entryDy=0;dashed=1;fontSize=15;startArrow=none;startFill=0;strokeColor=#d79b00;strokeWidth=2;elbow=vertical;fillColor=#ffe6cc;" edge="1" parent="1" source="tRei36gf63GVyLvpFXBs-22" target="tRei36gf63GVyLvpFXBs-29">
          <mxGeometry relative="1" as="geometry" />
        </mxCell>
        <mxCell id="tRei36gf63GVyLvpFXBs-158" style="edgeStyle=orthogonalEdgeStyle;rounded=1;orthogonalLoop=1;jettySize=auto;html=1;exitX=0;exitY=0.5;exitDx=0;exitDy=0;entryX=1;entryY=0.5;entryDx=0;entryDy=0;fontSize=15;startArrow=classic;startFill=1;strokeColor=#d79b00;strokeWidth=2;elbow=vertical;fillColor=#ffe6cc;dashed=1;" edge="1" parent="1" source="tRei36gf63GVyLvpFXBs-22" target="tRei36gf63GVyLvpFXBs-1">
          <mxGeometry relative="1" as="geometry" />
        </mxCell>
        <mxCell id="tRei36gf63GVyLvpFXBs-22" value="&lt;font style=&quot;font-size: 15px&quot;&gt;NLP&lt;/font&gt;" style="rounded=1;whiteSpace=wrap;html=1;fillColor=#f8cecc;strokeColor=#b85450;strokeWidth=1;" vertex="1" parent="1">
          <mxGeometry x="255.5" y="150" width="135" height="40" as="geometry" />
        </mxCell>
        <mxCell id="tRei36gf63GVyLvpFXBs-18" value="&lt;font style=&quot;font-size: 15px&quot;&gt;Reinforcement Learning&lt;/font&gt;" style="rounded=1;whiteSpace=wrap;html=1;fillColor=#f8cecc;strokeColor=#b85450;strokeWidth=1;" vertex="1" parent="1">
          <mxGeometry x="163" y="500" width="135" height="40" as="geometry" />
        </mxCell>
        <mxCell id="tRei36gf63GVyLvpFXBs-29" value="OR" style="rhombus;whiteSpace=wrap;html=1;fontSize=15;strokeWidth=2;fillColor=#ffe6cc;strokeColor=#d79b00;" vertex="1" parent="1">
          <mxGeometry x="205.5" y="200" width="50" height="50" as="geometry" />
        </mxCell>
        <mxCell id="tRei36gf63GVyLvpFXBs-193" style="edgeStyle=orthogonalEdgeStyle;rounded=1;orthogonalLoop=1;jettySize=auto;html=1;exitX=0;exitY=0.75;exitDx=0;exitDy=0;entryX=1;entryY=0.5;entryDx=0;entryDy=0;fontSize=18;startArrow=classic;startFill=1;endArrow=none;endFill=0;strokeColor=#000000;strokeWidth=2;elbow=vertical;" edge="1" parent="1" source="tRei36gf63GVyLvpFXBs-33" target="tRei36gf63GVyLvpFXBs-178">
          <mxGeometry relative="1" as="geometry">
            <Array as="points">
              <mxPoint x="-130" y="320" />
              <mxPoint x="-130" y="410" />
              <mxPoint x="-145" y="410" />
            </Array>
          </mxGeometry>
        </mxCell>
        <mxCell id="tRei36gf63GVyLvpFXBs-211" style="edgeStyle=orthogonalEdgeStyle;rounded=1;orthogonalLoop=1;jettySize=auto;html=1;exitX=0.5;exitY=1;exitDx=0;exitDy=0;entryX=0.5;entryY=0;entryDx=0;entryDy=0;dashed=1;fontSize=18;startArrow=classic;startFill=1;endArrow=classic;endFill=1;strokeColor=#d79b00;strokeWidth=2;elbow=vertical;fillColor=#ffe6cc;" edge="1" parent="1" source="tRei36gf63GVyLvpFXBs-33" target="tRei36gf63GVyLvpFXBs-43">
          <mxGeometry relative="1" as="geometry" />
        </mxCell>
        <mxCell id="tRei36gf63GVyLvpFXBs-33" value="&lt;font style=&quot;font-size: 15px&quot;&gt;Machine Learning&lt;/font&gt;" style="rounded=1;whiteSpace=wrap;html=1;fillColor=#f8cecc;strokeColor=#b85450;strokeWidth=1;" vertex="1" parent="1">
          <mxGeometry x="163" y="290" width="135" height="40" as="geometry" />
        </mxCell>
        <mxCell id="tRei36gf63GVyLvpFXBs-37" value="&lt;span style=&quot;font-size: 15px&quot;&gt;Ethics in AI&lt;/span&gt;" style="rounded=1;whiteSpace=wrap;html=1;fillColor=#FFB366;strokeColor=#82b366;strokeWidth=1;" vertex="1" parent="1">
          <mxGeometry x="478.5" y="430" width="135" height="40" as="geometry" />
        </mxCell>
        <mxCell id="tRei36gf63GVyLvpFXBs-41" value="&lt;span style=&quot;font-size: 15px&quot;&gt;Automated Logic Reasoning&lt;/span&gt;" style="rounded=1;whiteSpace=wrap;html=1;fillColor=#dae8fc;strokeColor=#6c8ebf;strokeWidth=1;" vertex="1" parent="1">
          <mxGeometry x="-60" y="500" width="135" height="40" as="geometry" />
        </mxCell>
        <mxCell id="tRei36gf63GVyLvpFXBs-209" style="edgeStyle=orthogonalEdgeStyle;rounded=1;orthogonalLoop=1;jettySize=auto;html=1;exitX=0.25;exitY=1;exitDx=0;exitDy=0;entryX=1;entryY=0.5;entryDx=0;entryDy=0;dashed=1;fontSize=18;startArrow=classic;startFill=1;endArrow=classic;endFill=1;strokeColor=#d79b00;strokeWidth=2;elbow=vertical;fillColor=#ffe6cc;" edge="1" parent="1" source="tRei36gf63GVyLvpFXBs-43" target="tRei36gf63GVyLvpFXBs-44">
          <mxGeometry relative="1" as="geometry" />
        </mxCell>
        <mxCell id="tRei36gf63GVyLvpFXBs-210" style="edgeStyle=orthogonalEdgeStyle;rounded=1;orthogonalLoop=1;jettySize=auto;html=1;exitX=0.5;exitY=1;exitDx=0;exitDy=0;entryX=0.5;entryY=0;entryDx=0;entryDy=0;dashed=1;fontSize=18;startArrow=classic;startFill=1;endArrow=classic;endFill=1;strokeColor=#d79b00;strokeWidth=2;elbow=vertical;fillColor=#ffe6cc;" edge="1" parent="1" source="tRei36gf63GVyLvpFXBs-43" target="tRei36gf63GVyLvpFXBs-18">
          <mxGeometry relative="1" as="geometry" />
        </mxCell>
        <mxCell id="tRei36gf63GVyLvpFXBs-43" value="&lt;span style=&quot;font-size: 15px&quot;&gt;Online Learning and Optimization&lt;/span&gt;" style="rounded=1;whiteSpace=wrap;html=1;fillColor=#F8CECC;strokeColor=#6c8ebf;strokeWidth=1;" vertex="1" parent="1">
          <mxGeometry x="163" y="380" width="135" height="40" as="geometry" />
        </mxCell>
        <mxCell id="tRei36gf63GVyLvpFXBs-45" value="&lt;font style=&quot;font-size: 15px&quot;&gt;AI in Healthcare&lt;/font&gt;" style="rounded=1;whiteSpace=wrap;html=1;fillColor=#DAE8FC;strokeColor=#82b366;strokeWidth=1;" vertex="1" parent="1">
          <mxGeometry x="581" y="240" width="135" height="40" as="geometry" />
        </mxCell>
        <mxCell id="tRei36gf63GVyLvpFXBs-51" style="edgeStyle=orthogonalEdgeStyle;rounded=0;orthogonalLoop=1;jettySize=auto;html=1;exitX=1;exitY=0.5;exitDx=0;exitDy=0;fontSize=15;strokeWidth=2;" edge="1" parent="1">
          <mxGeometry relative="1" as="geometry">
            <mxPoint x="315" y="615.71" as="sourcePoint" />
            <mxPoint x="355" y="616" as="targetPoint" />
            <Array as="points">
              <mxPoint x="335" y="616" />
              <mxPoint x="355" y="616" />
              <mxPoint x="355" y="571" />
            </Array>
          </mxGeometry>
        </mxCell>
        <mxCell id="tRei36gf63GVyLvpFXBs-52" value="= Prerequisite" style="text;html=1;align=center;verticalAlign=middle;resizable=0;points=[];autosize=1;strokeColor=none;fillColor=none;fontSize=15;" vertex="1" parent="1">
          <mxGeometry x="351" y="609" width="110" height="20" as="geometry" />
        </mxCell>
        <mxCell id="tRei36gf63GVyLvpFXBs-54" value="= Helps" style="text;html=1;align=center;verticalAlign=middle;resizable=0;points=[];autosize=1;strokeColor=none;fillColor=none;fontSize=15;" vertex="1" parent="1">
          <mxGeometry x="511" y="609" width="70" height="20" as="geometry" />
        </mxCell>
        <mxCell id="tRei36gf63GVyLvpFXBs-162" value="&lt;p style=&quot;line-height: 0&quot;&gt;&lt;/p&gt;&lt;h1 style=&quot;font-size: 18px&quot;&gt;&lt;span style=&quot;font-size: 30px&quot;&gt;UT MSAIO Course Relationships&lt;br&gt;&lt;/span&gt;&lt;span style=&quot;line-height: 0&quot;&gt;&lt;font style=&quot;font-size: 18px&quot;&gt;How to read this diagram:&lt;/font&gt;&lt;/span&gt;&lt;/h1&gt;&lt;div style=&quot;font-size: 18px&quot;&gt;&lt;ol&gt;&lt;li&gt;&lt;font style=&quot;font-size: 18px&quot;&gt;&lt;span style=&quot;line-height: 0&quot;&gt;&lt;font style=&quot;font-size: 18px&quot;&gt;&quot;Prerequisite&quot;: A&amp;nbsp; &amp;nbsp; &amp;nbsp; &amp;nbsp; &amp;nbsp;B means&lt;/font&gt;&lt;/span&gt;&amp;nbsp;A is needed to complete a significant part of course B (more than 1/4th), but A is not introduced in the course itself. Undergrad courses (not taught in this program) are included. &lt;br&gt;E.g. &quot;Undergrad Linear Algebra&quot; is needed before taking &quot;Machine Learning&quot;.&lt;br&gt;&lt;br&gt;&lt;/font&gt;&lt;/li&gt;&lt;li&gt;&lt;font style=&quot;font-size: 18px&quot;&gt;&quot;Helps&quot;: A&amp;nbsp; &amp;nbsp; &amp;nbsp; &amp;nbsp; &amp;nbsp; B means it is helpful (but not necessary) to know A prior to course B. This might be because course B builds upon material in A (e.g. &quot;Advanced OS&quot;&amp;nbsp; &amp;nbsp; &amp;nbsp; &amp;nbsp; &amp;nbsp; &quot;Virtualization&quot;). &lt;br&gt;In other cases, A and B might have a significant overlap of material, in which case there is a bi-directional relationship (e.g. &quot;Deep Learning&quot;&lt;/font&gt;&amp;nbsp; &amp;nbsp; &amp;nbsp; &amp;nbsp; &amp;nbsp; &amp;nbsp; &quot;Natural Language Processing&quot; because they both introduce and use PyTorch to teach neural nets).&lt;/li&gt;&lt;/ol&gt;&lt;/div&gt;&lt;p&gt;&lt;/p&gt;" style="text;html=1;strokeColor=none;fillColor=none;spacing=5;spacingTop=-20;whiteSpace=wrap;overflow=hidden;rounded=0;fontSize=20;spacingBottom=0;verticalAlign=top;" vertex="1" parent="1">
          <mxGeometry x="-244" y="684" width="914" height="290" as="geometry" />
        </mxCell>
        <mxCell id="tRei36gf63GVyLvpFXBs-169" style="edgeStyle=orthogonalEdgeStyle;rounded=0;orthogonalLoop=1;jettySize=auto;html=1;exitX=1;exitY=0.5;exitDx=0;exitDy=0;fontSize=15;strokeWidth=2;dashed=1;fillColor=#ffe6cc;strokeColor=#d79b00;" edge="1" parent="1">
          <mxGeometry relative="1" as="geometry">
            <mxPoint x="-112" y="863" as="sourcePoint" />
            <mxPoint x="-72" y="863.29" as="targetPoint" />
            <Array as="points">
              <mxPoint x="-92" y="863.29" />
              <mxPoint x="-72" y="863.29" />
              <mxPoint x="-72" y="818.29" />
            </Array>
          </mxGeometry>
        </mxCell>
        <mxCell id="tRei36gf63GVyLvpFXBs-170" style="edgeStyle=orthogonalEdgeStyle;rounded=0;orthogonalLoop=1;jettySize=auto;html=1;exitX=1;exitY=0.5;exitDx=0;exitDy=0;fontSize=15;strokeWidth=2;" edge="1" parent="1">
          <mxGeometry relative="1" as="geometry">
            <mxPoint x="-65.00000000000023" y="780" as="sourcePoint" />
            <mxPoint x="-25.000000000000227" y="780.29" as="targetPoint" />
            <Array as="points">
              <mxPoint x="-45" y="780.29" />
              <mxPoint x="-25" y="780.29" />
              <mxPoint x="-25" y="735.29" />
            </Array>
          </mxGeometry>
        </mxCell>
        <mxCell id="tRei36gf63GVyLvpFXBs-171" style="edgeStyle=orthogonalEdgeStyle;rounded=0;orthogonalLoop=1;jettySize=auto;html=1;exitX=1;exitY=0.5;exitDx=0;exitDy=0;fontSize=15;strokeWidth=2;dashed=1;fillColor=#ffe6cc;strokeColor=#d79b00;" edge="1" parent="1">
          <mxGeometry relative="1" as="geometry">
            <mxPoint x="251" y="885" as="sourcePoint" />
            <mxPoint x="291" y="885.29" as="targetPoint" />
            <Array as="points">
              <mxPoint x="271" y="885" />
            </Array>
          </mxGeometry>
        </mxCell>
        <mxCell id="tRei36gf63GVyLvpFXBs-172" style="edgeStyle=orthogonalEdgeStyle;rounded=0;orthogonalLoop=1;jettySize=auto;html=1;exitX=1;exitY=0.5;exitDx=0;exitDy=0;fontSize=15;strokeWidth=2;dashed=1;fillColor=#ffe6cc;strokeColor=#d79b00;startArrow=classic;startFill=1;" edge="1" parent="1">
          <mxGeometry relative="1" as="geometry">
            <mxPoint x="72" y="927" as="sourcePoint" />
            <mxPoint x="127" y="927.29" as="targetPoint" />
            <Array as="points">
              <mxPoint x="102" y="927" />
            </Array>
          </mxGeometry>
        </mxCell>
        <mxCell id="tRei36gf63GVyLvpFXBs-175" style="edgeStyle=orthogonalEdgeStyle;rounded=1;orthogonalLoop=1;jettySize=auto;html=1;exitX=1;exitY=0.5;exitDx=0;exitDy=0;entryX=0;entryY=0.5;entryDx=0;entryDy=0;fontSize=18;startArrow=none;startFill=0;endArrow=classic;endFill=1;strokeColor=#000000;strokeWidth=2;elbow=vertical;" edge="1" parent="1" source="tRei36gf63GVyLvpFXBs-14" target="tRei36gf63GVyLvpFXBs-45">
          <mxGeometry relative="1" as="geometry">
            <mxPoint x="550" y="580" as="sourcePoint" />
            <mxPoint x="630" y="580" as="targetPoint" />
          </mxGeometry>
        </mxCell>
        <mxCell id="tRei36gf63GVyLvpFXBs-177" style="edgeStyle=orthogonalEdgeStyle;rounded=1;orthogonalLoop=1;jettySize=auto;html=1;exitX=1;exitY=0.5;exitDx=0;exitDy=0;entryX=0;entryY=0.5;entryDx=0;entryDy=0;fontSize=18;startArrow=none;startFill=0;endArrow=classic;endFill=1;strokeColor=#000000;strokeWidth=2;elbow=vertical;" edge="1" parent="1" source="tRei36gf63GVyLvpFXBs-176" target="tRei36gf63GVyLvpFXBs-41">
          <mxGeometry relative="1" as="geometry" />
        </mxCell>
        <mxCell id="tRei36gf63GVyLvpFXBs-176" value="Undergrad Discrete Math" style="rounded=1;whiteSpace=wrap;html=1;fontSize=15;strokeWidth=2;" vertex="1" parent="1">
          <mxGeometry x="-270" y="495" width="125" height="50" as="geometry" />
        </mxCell>
        <mxCell id="tRei36gf63GVyLvpFXBs-178" value="Undergrad Calculus" style="rounded=1;whiteSpace=wrap;html=1;fontSize=15;strokeWidth=2;" vertex="1" parent="1">
          <mxGeometry x="-270" y="388" width="125" height="50" as="geometry" />
        </mxCell>
        <mxCell id="tRei36gf63GVyLvpFXBs-187" style="edgeStyle=orthogonalEdgeStyle;rounded=0;orthogonalLoop=1;jettySize=auto;html=1;exitX=1;exitY=0.5;exitDx=0;exitDy=0;fontSize=15;strokeWidth=2;strokeColor=#A1A1A1;" edge="1" parent="1">
          <mxGeometry relative="1" as="geometry">
            <mxPoint x="315" y="626.71" as="sourcePoint" />
            <mxPoint x="355" y="627" as="targetPoint" />
            <Array as="points">
              <mxPoint x="335" y="627" />
              <mxPoint x="355" y="627" />
              <mxPoint x="355" y="582" />
            </Array>
          </mxGeometry>
        </mxCell>
        <mxCell id="tRei36gf63GVyLvpFXBs-200" value="R coding" style="rounded=1;whiteSpace=wrap;html=1;fontSize=15;strokeWidth=2;" vertex="1" parent="1">
          <mxGeometry x="-270" y="15" width="125" height="50" as="geometry" />
        </mxCell>
        <mxCell id="tRei36gf63GVyLvpFXBs-44" value="&lt;span style=&quot;font-size: 15px&quot;&gt;Optimization&lt;/span&gt;" style="rounded=1;whiteSpace=wrap;html=1;fillColor=#dae8fc;strokeColor=#6c8ebf;strokeWidth=1;" vertex="1" parent="1">
          <mxGeometry x="-60" y="430" width="135" height="40" as="geometry" />
        </mxCell>
        <mxCell id="tRei36gf63GVyLvpFXBs-214" style="edgeStyle=orthogonalEdgeStyle;rounded=0;orthogonalLoop=1;jettySize=auto;html=1;exitX=1;exitY=0.5;exitDx=0;exitDy=0;fontSize=15;strokeWidth=2;fillColor=#ffe6cc;strokeColor=#d79b00;dashed=1;" edge="1" parent="1">
          <mxGeometry relative="1" as="geometry">
            <mxPoint x="472" y="615.71" as="sourcePoint" />
            <mxPoint x="517" y="616" as="targetPoint" />
            <Array as="points">
              <mxPoint x="497" y="616" />
              <mxPoint x="517" y="616" />
              <mxPoint x="517" y="571" />
            </Array>
          </mxGeometry>
        </mxCell>
        <mxCell id="tRei36gf63GVyLvpFXBs-215" style="edgeStyle=orthogonalEdgeStyle;rounded=0;orthogonalLoop=1;jettySize=auto;html=1;exitX=1;exitY=0.5;exitDx=0;exitDy=0;fontSize=15;strokeWidth=2;strokeColor=#d79b00;fillColor=#ffe6cc;dashed=1;startArrow=classic;startFill=1;" edge="1" parent="1">
          <mxGeometry relative="1" as="geometry">
            <mxPoint x="467" y="626.71" as="sourcePoint" />
            <mxPoint x="517" y="627" as="targetPoint" />
            <Array as="points">
              <mxPoint x="497" y="627" />
              <mxPoint x="517" y="627" />
              <mxPoint x="517" y="582" />
            </Array>
          </mxGeometry>
        </mxCell>
        <mxCell id="gLPoRwLPRSrl18HpzbSB-1" value="Case Studies in Machine Learning" style="rounded=1;whiteSpace=wrap;html=1;fillColor=#dae8fc;strokeColor=#6c8ebf;strokeWidth=1;" vertex="1" parent="1">
          <mxGeometry x="-60" y="20" width="135" height="40" as="geometry" />
        </mxCell>
        <mxCell id="gLPoRwLPRSrl18HpzbSB-2" value="Planning, Search &amp;amp; Reasoning Under Uncertainty" style="rounded=1;whiteSpace=wrap;html=1;fillColor=#dae8fc;strokeColor=#6c8ebf;strokeWidth=1;" vertex="1" parent="1">
          <mxGeometry x="-60" y="79" width="135" height="40" as="geometry" />
        </mxCell>
        <mxCell id="gLPoRwLPRSrl18HpzbSB-3" style="edgeStyle=orthogonalEdgeStyle;rounded=1;orthogonalLoop=1;jettySize=auto;html=1;exitX=0.5;exitY=1;exitDx=0;exitDy=0;dashed=1;fontSize=18;startArrow=classic;startFill=1;endArrow=classic;endFill=1;strokeColor=#d79b00;strokeWidth=2;elbow=vertical;fillColor=#ffe6cc;" edge="1" parent="1" source="tRei36gf63GVyLvpFXBs-29" target="tRei36gf63GVyLvpFXBs-33">
          <mxGeometry relative="1" as="geometry">
            <mxPoint x="202" y="240" as="sourcePoint" />
            <mxPoint x="202" y="290" as="targetPoint" />
          </mxGeometry>
        </mxCell>
        <mxCell id="gLPoRwLPRSrl18HpzbSB-4" value="Basic Philosophical Principles" style="rounded=1;whiteSpace=wrap;html=1;fontSize=15;strokeWidth=2;" vertex="1" parent="1">
          <mxGeometry x="483.5" y="330" width="125" height="60" as="geometry" />
        </mxCell>
        <mxCell id="gLPoRwLPRSrl18HpzbSB-5" style="edgeStyle=orthogonalEdgeStyle;rounded=1;orthogonalLoop=1;jettySize=auto;html=1;exitX=1;exitY=0.5;exitDx=0;exitDy=0;fontSize=18;startArrow=none;startFill=0;endArrow=classic;endFill=1;strokeColor=#A1A1A1;strokeWidth=2;elbow=vertical;entryX=0;entryY=0.5;entryDx=0;entryDy=0;fillColor=#f5f5f5;gradientColor=#b3b3b3;" edge="1" parent="1" source="tRei36gf63GVyLvpFXBs-200" target="gLPoRwLPRSrl18HpzbSB-1">
          <mxGeometry relative="1" as="geometry">
            <mxPoint x="-145" y="99.5" as="sourcePoint" />
            <mxPoint x="-65" y="99.5" as="targetPoint" />
          </mxGeometry>
        </mxCell>
        <mxCell id="gLPoRwLPRSrl18HpzbSB-6" style="edgeStyle=orthogonalEdgeStyle;rounded=1;orthogonalLoop=1;jettySize=auto;html=1;exitX=1;exitY=0.5;exitDx=0;exitDy=0;fontSize=18;startArrow=classic;startFill=1;endArrow=none;endFill=0;strokeColor=#A1A1A1;strokeWidth=2;elbow=vertical;fillColor=#f5f5f5;gradientColor=#b3b3b3;" edge="1" parent="1" source="gLPoRwLPRSrl18HpzbSB-1" target="tRei36gf63GVyLvpFXBs-14">
          <mxGeometry relative="1" as="geometry">
            <mxPoint x="75" y="99.5" as="sourcePoint" />
            <mxPoint x="155" y="99.5" as="targetPoint" />
          </mxGeometry>
        </mxCell>
        <mxCell id="gLPoRwLPRSrl18HpzbSB-8" style="edgeStyle=orthogonalEdgeStyle;rounded=1;orthogonalLoop=1;jettySize=auto;html=1;exitX=0.5;exitY=0;exitDx=0;exitDy=0;entryX=0.5;entryY=0;entryDx=0;entryDy=0;fontSize=18;startArrow=classic;startFill=1;endArrow=none;endFill=0;strokeColor=#000000;strokeWidth=2;elbow=vertical;" edge="1" parent="1" source="tRei36gf63GVyLvpFXBs-1" target="tRei36gf63GVyLvpFXBs-14">
          <mxGeometry relative="1" as="geometry">
            <mxPoint x="330" y="30" as="sourcePoint" />
            <mxPoint x="410" y="30" as="targetPoint" />
            <Array as="points">
              <mxPoint x="135" y="100" />
              <mxPoint x="483" y="100" />
            </Array>
          </mxGeometry>
        </mxCell>
        <mxCell id="gLPoRwLPRSrl18HpzbSB-10" style="edgeStyle=orthogonalEdgeStyle;rounded=1;orthogonalLoop=1;jettySize=auto;html=1;entryX=0.5;entryY=1;entryDx=0;entryDy=0;fontSize=18;startArrow=classic;startFill=1;endArrow=none;endFill=0;strokeColor=#000000;strokeWidth=2;elbow=vertical;" edge="1" parent="1" target="gLPoRwLPRSrl18HpzbSB-4">
          <mxGeometry relative="1" as="geometry">
            <mxPoint x="546" y="430" as="sourcePoint" />
            <mxPoint x="680" y="585" as="targetPoint" />
          </mxGeometry>
        </mxCell>
        <mxCell id="gLPoRwLPRSrl18HpzbSB-11" style="edgeStyle=orthogonalEdgeStyle;rounded=1;orthogonalLoop=1;jettySize=auto;html=1;exitX=0.5;exitY=0;exitDx=0;exitDy=0;entryX=0.5;entryY=0;entryDx=0;entryDy=0;fontSize=18;startArrow=classic;startFill=1;endArrow=none;endFill=0;strokeColor=#000000;strokeWidth=2;elbow=vertical;" edge="1" parent="1" source="tRei36gf63GVyLvpFXBs-22" target="tRei36gf63GVyLvpFXBs-14">
          <mxGeometry relative="1" as="geometry">
            <mxPoint x="400" y="30" as="sourcePoint" />
            <mxPoint x="480" y="30" as="targetPoint" />
            <Array as="points">
              <mxPoint x="323" y="100" />
              <mxPoint x="483" y="100" />
            </Array>
          </mxGeometry>
        </mxCell>
        <mxCell id="gLPoRwLPRSrl18HpzbSB-12" style="edgeStyle=orthogonalEdgeStyle;rounded=1;orthogonalLoop=1;jettySize=auto;html=1;exitX=1;exitY=0.5;exitDx=0;exitDy=0;entryX=0;entryY=0.75;entryDx=0;entryDy=0;fontSize=18;startArrow=none;startFill=0;endArrow=classic;endFill=1;strokeColor=#000000;strokeWidth=2;elbow=vertical;" edge="1" parent="1" source="tRei36gf63GVyLvpFXBs-178" target="tRei36gf63GVyLvpFXBs-44">
          <mxGeometry relative="1" as="geometry">
            <mxPoint x="-80" y="370" as="sourcePoint" />
            <mxPoint y="370" as="targetPoint" />
            <Array as="points">
              <mxPoint x="-130" y="413" />
              <mxPoint x="-130" y="460" />
            </Array>
          </mxGeometry>
        </mxCell>
        <mxCell id="gLPoRwLPRSrl18HpzbSB-13" style="edgeStyle=orthogonalEdgeStyle;rounded=1;orthogonalLoop=1;jettySize=auto;html=1;exitX=1;exitY=0.5;exitDx=0;exitDy=0;entryX=0;entryY=0.25;entryDx=0;entryDy=0;fontSize=15;startArrow=none;startFill=0;strokeWidth=2;strokeColor=#A1A1A1;" edge="1" parent="1" source="tRei36gf63GVyLvpFXBs-19" target="tRei36gf63GVyLvpFXBs-44">
          <mxGeometry relative="1" as="geometry">
            <Array as="points">
              <mxPoint x="-100" y="310" />
              <mxPoint x="-100" y="440" />
            </Array>
            <mxPoint x="-115" y="347" as="sourcePoint" />
            <mxPoint x="188" y="347" as="targetPoint" />
          </mxGeometry>
        </mxCell>
        <mxCell id="gLPoRwLPRSrl18HpzbSB-14" style="edgeStyle=orthogonalEdgeStyle;rounded=1;orthogonalLoop=1;jettySize=auto;html=1;exitX=1;exitY=0.5;exitDx=0;exitDy=0;entryX=0;entryY=0.5;entryDx=0;entryDy=0;fontSize=15;startArrow=none;startFill=0;strokeWidth=2;strokeColor=#A1A1A1;" edge="1" parent="1" source="tRei36gf63GVyLvpFXBs-19" target="tRei36gf63GVyLvpFXBs-43">
          <mxGeometry relative="1" as="geometry">
            <Array as="points">
              <mxPoint x="-100" y="310" />
              <mxPoint x="-100" y="400" />
            </Array>
            <mxPoint x="-125" y="360" as="sourcePoint" />
            <mxPoint x="178" y="360" as="targetPoint" />
          </mxGeometry>
        </mxCell>
        <mxCell id="gLPoRwLPRSrl18HpzbSB-15" style="edgeStyle=orthogonalEdgeStyle;rounded=1;orthogonalLoop=1;jettySize=auto;html=1;exitX=1;exitY=0.5;exitDx=0;exitDy=0;entryX=0;entryY=0.5;entryDx=0;entryDy=0;fontSize=18;startArrow=classic;startFill=1;endArrow=none;endFill=0;strokeColor=#000000;strokeWidth=2;elbow=vertical;" edge="1" parent="1" source="tRei36gf63GVyLvpFXBs-33" target="tRei36gf63GVyLvpFXBs-14">
          <mxGeometry relative="1" as="geometry">
            <mxPoint x="521" y="555" as="sourcePoint" />
            <mxPoint x="601" y="555" as="targetPoint" />
          </mxGeometry>
        </mxCell>
        <mxCell id="gLPoRwLPRSrl18HpzbSB-17" style="edgeStyle=orthogonalEdgeStyle;rounded=1;orthogonalLoop=1;jettySize=auto;html=1;exitX=1;exitY=0.5;exitDx=0;exitDy=0;entryX=0;entryY=0.5;entryDx=0;entryDy=0;fontSize=18;startArrow=classic;startFill=1;endArrow=none;endFill=0;strokeColor=#000000;strokeWidth=2;elbow=vertical;" edge="1" parent="1" source="tRei36gf63GVyLvpFXBs-18" target="tRei36gf63GVyLvpFXBs-14">
          <mxGeometry relative="1" as="geometry">
            <mxPoint x="308" y="320" as="sourcePoint" />
            <mxPoint x="430" y="270" as="targetPoint" />
          </mxGeometry>
        </mxCell>
        <mxCell id="gLPoRwLPRSrl18HpzbSB-18" style="edgeStyle=orthogonalEdgeStyle;rounded=1;orthogonalLoop=1;jettySize=auto;html=1;exitX=1;exitY=0.5;exitDx=0;exitDy=0;entryX=0;entryY=0.5;entryDx=0;entryDy=0;fontSize=18;startArrow=classic;startFill=1;endArrow=none;endFill=0;strokeColor=#000000;strokeWidth=2;elbow=vertical;" edge="1" parent="1" source="tRei36gf63GVyLvpFXBs-43" target="tRei36gf63GVyLvpFXBs-14">
          <mxGeometry relative="1" as="geometry">
            <mxPoint x="318" y="330" as="sourcePoint" />
            <mxPoint x="440" y="280" as="targetPoint" />
          </mxGeometry>
        </mxCell>
        <mxCell id="gLPoRwLPRSrl18HpzbSB-19" value="Undergrad Algorithms" style="rounded=1;whiteSpace=wrap;html=1;fontSize=15;strokeWidth=2;" vertex="1" parent="1">
          <mxGeometry x="-270" y="80" width="125" height="50" as="geometry" />
        </mxCell>
        <mxCell id="gLPoRwLPRSrl18HpzbSB-20" value="Undergrad Statistics" style="rounded=1;whiteSpace=wrap;html=1;fontSize=15;strokeWidth=2;" vertex="1" parent="1">
          <mxGeometry x="-270" y="145" width="125" height="50" as="geometry" />
        </mxCell>
        <mxCell id="gLPoRwLPRSrl18HpzbSB-21" style="edgeStyle=orthogonalEdgeStyle;rounded=1;orthogonalLoop=1;jettySize=auto;html=1;exitX=1;exitY=0.5;exitDx=0;exitDy=0;entryX=0;entryY=0.75;entryDx=0;entryDy=0;fontSize=18;startArrow=none;startFill=0;endArrow=classic;endFill=1;strokeColor=#A1A1A1;strokeWidth=2;elbow=vertical;fillColor=#f5f5f5;gradientColor=#b3b3b3;" edge="1" parent="1" source="gLPoRwLPRSrl18HpzbSB-20" target="gLPoRwLPRSrl18HpzbSB-2">
          <mxGeometry relative="1" as="geometry">
            <mxPoint x="-90" y="169.5" as="sourcePoint" />
            <mxPoint x="-10" y="169.5" as="targetPoint" />
          </mxGeometry>
        </mxCell>
        <mxCell id="gLPoRwLPRSrl18HpzbSB-22" style="edgeStyle=orthogonalEdgeStyle;rounded=1;orthogonalLoop=1;jettySize=auto;html=1;exitX=1;exitY=0.5;exitDx=0;exitDy=0;entryX=0;entryY=0.25;entryDx=0;entryDy=0;fontSize=18;startArrow=none;startFill=0;endArrow=classic;endFill=1;strokeColor=#A1A1A1;strokeWidth=2;elbow=vertical;fillColor=#f5f5f5;gradientColor=#b3b3b3;" edge="1" parent="1" source="gLPoRwLPRSrl18HpzbSB-19" target="gLPoRwLPRSrl18HpzbSB-2">
          <mxGeometry relative="1" as="geometry">
            <mxPoint x="-135" y="180" as="sourcePoint" />
            <mxPoint x="-50" y="125" as="targetPoint" />
          </mxGeometry>
        </mxCell>
        <mxCell id="gLPoRwLPRSrl18HpzbSB-24" style="edgeStyle=orthogonalEdgeStyle;rounded=1;orthogonalLoop=1;jettySize=auto;html=1;exitX=1;exitY=0.5;exitDx=0;exitDy=0;entryX=0.5;entryY=0;entryDx=0;entryDy=0;fontSize=18;startArrow=classic;startFill=1;endArrow=none;endFill=0;strokeColor=#000000;strokeWidth=2;elbow=vertical;" edge="1" parent="1" source="gLPoRwLPRSrl18HpzbSB-2" target="tRei36gf63GVyLvpFXBs-14">
          <mxGeometry relative="1" as="geometry">
            <mxPoint x="333" y="160" as="sourcePoint" />
            <mxPoint x="493" y="245" as="targetPoint" />
            <Array as="points">
              <mxPoint x="480" y="99" />
              <mxPoint x="480" y="235" />
            </Array>
          </mxGeometry>
        </mxCell>
      </root>
    </mxGraphModel>
  </diagram>
</mxfile>
